{"glyphs":{"0":{"ha":794,"x_min":0,"x_max":944,"o":"m 697 132 l 529 0 l 0 0 l 249 926 l 415 1058 l 944 1058 l 697 132 m 610 794 l 478 794 l 336 265 l 468 265 l 610 794 z "},"1":{"ha":496,"x_min":132,"x_max":680,"o":"m 680 1058 l 397 0 l 132 0 l 345 794 l 213 794 l 283 1058 l 680 1058 z "},"2":{"ha":794,"x_min":0,"x_max":910,"o":"m 812 1058 l 910 926 l 767 397 l 370 397 l 336 265 l 733 265 l 661 0 l 0 0 l 177 661 l 574 661 l 610 794 l 213 794 l 283 1058 l 812 1058 z "},"3":{"ha":794,"x_min":0,"x_max":944,"o":"m 697 132 l 529 0 l 0 0 l 71 265 l 468 265 l 503 397 l 106 397 l 177 661 l 574 661 l 610 794 l 213 794 l 283 1058 l 944 1058 l 697 132 z "},"4":{"ha":794,"x_min":71,"x_max":944,"o":"m 944 1058 l 661 0 l 397 0 l 468 265 l 71 265 l 283 1058 l 548 1058 l 406 529 l 538 529 l 680 1058 l 944 1058 z "},"5":{"ha":794,"x_min":0,"x_max":944,"o":"m 944 1058 l 874 794 l 478 794 l 442 661 l 839 661 l 661 0 l 0 0 l 71 265 l 468 265 l 503 397 l 106 397 l 283 1058 l 944 1058 z "},"6":{"ha":794,"x_min":0,"x_max":944,"o":"m 0 0 l 249 926 l 415 1058 l 944 1058 l 874 794 l 478 794 l 442 661 l 706 661 l 803 529 l 661 0 l 0 0 m 468 265 l 503 397 l 370 397 l 336 265 l 468 265 z "},"7":{"ha":794,"x_min":142,"x_max":944,"o":"m 397 0 l 610 794 l 478 794 l 406 529 l 142 529 l 283 1058 l 944 1058 l 661 0 l 397 0 z "},"8":{"ha":794,"x_min":0,"x_max":944,"o":"m 336 265 l 468 265 l 503 397 l 370 397 l 336 265 m 478 794 l 442 661 l 574 661 l 610 794 l 478 794 m 274 529 l 177 661 l 283 1058 l 944 1058 l 839 661 l 671 529 l 767 397 l 661 0 l 0 0 l 106 397 l 274 529 z "},"9":{"ha":794,"x_min":0,"x_max":944,"o":"m 944 1058 l 697 132 l 529 0 l 0 0 l 71 265 l 468 265 l 503 397 l 238 397 l 142 529 l 283 1058 l 944 1058 m 478 794 l 442 661 l 574 661 l 610 794 l 478 794 z "},"\u0000":{"ha":0,"x_min":0,"x_max":0,"o":""},"\u001d":{"ha":0,"x_min":0,"x_max":0,"o":""}," ":{"ha":397,"x_min":0,"x_max":0,"o":""},"!":{"ha":397,"x_min":0,"x_max":548,"o":"m 106 397 l 283 1058 l 548 1058 l 370 397 l 106 397 m 0 0 l 71 265 l 336 265 l 265 0 l 0 0 z "},"\"":{"ha":794,"x_min":177,"x_max":944,"o":"m 548 1058 l 442 661 l 177 661 l 283 1058 l 548 1058 m 944 1058 l 839 661 l 574 661 l 680 1058 l 944 1058 z "},"#":{"ha":1058,"x_min":36,"x_max":1175,"o":"m 238 397 l 310 661 l 177 661 l 249 926 l 381 926 l 415 1058 l 680 1058 l 646 926 l 778 926 l 812 1058 l 1077 1058 l 1042 926 l 1175 926 l 1103 661 l 971 661 l 899 397 l 1032 397 l 962 132 l 829 132 l 794 0 l 529 0 l 565 132 l 433 132 l 397 0 l 132 0 l 168 132 l 36 132 l 106 397 l 238 397 m 574 661 l 503 397 l 635 397 l 706 661 l 574 661 z "},"$":{"ha":794,"x_min":0,"x_max":944,"o":"m 415 1058 l 451 1190 l 716 1190 l 680 1058 l 944 1058 l 874 794 l 478 794 l 442 661 l 839 661 l 697 132 l 529 0 l 493 -132 l 229 -132 l 265 0 l 0 0 l 71 265 l 468 265 l 503 397 l 106 397 l 249 926 l 415 1058 z "},"%":{"ha":926,"x_min":132,"x_max":944,"o":"m 680 1058 l 944 1058 l 397 0 l 132 0 l 680 1058 m 565 132 l 635 397 l 899 397 l 829 132 l 565 132 m 177 661 l 249 926 l 513 926 l 442 661 l 177 661 z "},"&":{"ha":926,"x_min":0,"x_max":944,"o":"m 336 265 l 468 265 l 503 397 l 370 397 l 336 265 m 478 794 l 442 661 l 574 661 l 610 794 l 478 794 m 626 -132 l 361 -132 l 397 0 l 0 0 l 106 397 l 274 529 l 177 661 l 283 1058 l 944 1058 l 839 661 l 671 529 l 935 529 l 865 265 l 733 265 l 626 -132 z "},"'":{"ha":397,"x_min":177,"x_max":548,"o":"m 177 661 l 283 1058 l 548 1058 l 442 661 l 177 661 z "},"(":{"ha":529,"x_min":0,"x_max":680,"o":"m 680 1058 l 610 794 l 478 794 l 336 265 l 468 265 l 397 0 l 0 0 l 283 1058 l 680 1058 z "},")":{"ha":529,"x_min":0,"x_max":680,"o":"m 680 1058 l 397 0 l 0 0 l 71 265 l 204 265 l 345 794 l 213 794 l 283 1058 l 680 1058 z "},"*":{"ha":661,"x_min":213,"x_max":742,"o":"m 213 794 l 548 1058 l 742 794 l 406 529 l 213 794 z "},"+":{"ha":926,"x_min":106,"x_max":971,"o":"m 971 661 l 899 397 l 635 397 l 565 132 l 300 132 l 370 397 l 106 397 l 177 661 l 442 661 l 513 926 l 778 926 l 706 661 l 971 661 z "},",":{"ha":397,"x_min":-36,"x_max":336,"o":"m 336 265 l 229 -132 l -36 -132 l 71 265 l 336 265 z "},"-":{"ha":794,"x_min":106,"x_max":839,"o":"m 839 661 l 767 397 l 106 397 l 177 661 l 839 661 z "},"‐":{"ha":794,"x_min":106,"x_max":839,"o":"m 839 661 l 767 397 l 106 397 l 177 661 l 839 661 z "},".":{"ha":397,"x_min":0,"x_max":336,"o":"m 336 265 l 265 0 l 0 0 l 71 265 l 336 265 z "},"/":{"ha":661,"x_min":0,"x_max":812,"o":"m 548 1058 l 812 1058 l 265 0 l 0 0 l 548 1058 z "},":":{"ha":397,"x_min":36,"x_max":478,"o":"m 478 794 l 406 529 l 142 529 l 213 794 l 478 794 m 36 132 l 106 397 l 370 397 l 300 132 l 36 132 z "},";":{"ha":397,"x_min":0,"x_max":478,"o":"m 106 397 l 370 397 l 265 0 l 0 0 l 106 397 m 142 529 l 213 794 l 478 794 l 406 529 l 142 529 z "},"<":{"ha":661,"x_min":142,"x_max":742,"o":"m 142 529 l 478 794 l 742 794 l 406 529 l 601 265 l 336 265 l 142 529 z "},"=":{"ha":794,"x_min":36,"x_max":874,"o":"m 874 794 l 803 529 l 142 529 l 213 794 l 874 794 m 767 397 l 697 132 l 36 132 l 106 397 l 767 397 z "},">":{"ha":661,"x_min":71,"x_max":671,"o":"m 336 265 l 71 265 l 406 529 l 213 794 l 478 794 l 671 529 l 336 265 z "},"?":{"ha":794,"x_min":132,"x_max":944,"o":"m 468 265 l 397 0 l 132 0 l 204 265 l 468 265 m 944 1058 l 767 397 l 238 397 l 310 661 l 574 661 l 610 794 l 213 794 l 283 1058 l 944 1058 z "},"@":{"ha":1058,"x_min":36,"x_max":1209,"o":"m 839 661 l 874 794 l 478 794 l 336 265 l 997 265 l 926 0 l 132 0 l 36 132 l 249 926 l 415 1058 l 1209 1058 l 1032 397 l 503 397 l 574 661 l 839 661 z "},"A":{"ha":794,"x_min":0,"x_max":910,"o":"m 538 529 l 610 794 l 478 794 l 406 529 l 538 529 m 336 265 l 265 0 l 0 0 l 283 1058 l 812 1058 l 910 926 l 661 0 l 397 0 l 468 265 l 336 265 z "},"B":{"ha":794,"x_min":0,"x_max":944,"o":"m 671 529 l 767 397 l 661 0 l 0 0 l 283 1058 l 944 1058 l 839 661 l 671 529 m 478 794 l 442 661 l 574 661 l 610 794 l 478 794 m 370 397 l 336 265 l 468 265 l 503 397 l 370 397 z "},"C":{"ha":794,"x_min":36,"x_max":944,"o":"m 132 0 l 36 132 l 249 926 l 415 1058 l 944 1058 l 839 661 l 574 661 l 610 794 l 478 794 l 336 265 l 468 265 l 503 397 l 767 397 l 661 0 l 132 0 z "},"D":{"ha":794,"x_min":0,"x_max":910,"o":"m 697 132 l 529 0 l 0 0 l 283 1058 l 812 1058 l 910 926 l 697 132 m 610 794 l 478 794 l 336 265 l 468 265 l 610 794 z "},"E":{"ha":794,"x_min":0,"x_max":944,"o":"m 370 397 l 336 265 l 733 265 l 661 0 l 0 0 l 283 1058 l 944 1058 l 874 794 l 478 794 l 442 661 l 839 661 l 767 397 l 370 397 z "},"F":{"ha":794,"x_min":0,"x_max":944,"o":"m 370 397 l 265 0 l 0 0 l 283 1058 l 944 1058 l 874 794 l 478 794 l 442 661 l 839 661 l 767 397 l 370 397 z "},"G":{"ha":794,"x_min":36,"x_max":944,"o":"m 132 0 l 36 132 l 249 926 l 415 1058 l 944 1058 l 839 661 l 574 661 l 610 794 l 478 794 l 336 265 l 468 265 l 538 529 l 803 529 l 661 0 l 132 0 z "},"H":{"ha":794,"x_min":0,"x_max":944,"o":"m 944 1058 l 661 0 l 397 0 l 468 265 l 336 265 l 265 0 l 0 0 l 283 1058 l 548 1058 l 406 529 l 538 529 l 680 1058 l 944 1058 z "},"I":{"ha":397,"x_min":0,"x_max":548,"o":"m 0 0 l 283 1058 l 548 1058 l 265 0 l 0 0 z "},"J":{"ha":794,"x_min":36,"x_max":944,"o":"m 132 0 l 36 132 l 142 529 l 406 529 l 336 265 l 468 265 l 680 1058 l 944 1058 l 661 0 l 132 0 z "},"K":{"ha":794,"x_min":0,"x_max":944,"o":"m 635 397 l 733 265 l 661 0 l 397 0 l 468 265 l 336 265 l 265 0 l 0 0 l 283 1058 l 548 1058 l 406 529 l 538 529 l 680 1058 l 944 1058 l 803 529 l 635 397 z "},"L":{"ha":661,"x_min":0,"x_max":601,"o":"m 548 1058 l 336 265 l 601 265 l 529 0 l 0 0 l 283 1058 l 548 1058 z "},"M":{"ha":1190,"x_min":0,"x_max":1307,"o":"m 1209 1058 l 1307 926 l 1058 0 l 794 0 l 1007 794 l 874 794 l 661 0 l 397 0 l 610 794 l 478 794 l 265 0 l 0 0 l 283 1058 l 1209 1058 z "},"N":{"ha":794,"x_min":0,"x_max":910,"o":"m 812 1058 l 910 926 l 661 0 l 397 0 l 610 794 l 478 794 l 265 0 l 0 0 l 283 1058 l 812 1058 z "},"O":{"ha":794,"x_min":0,"x_max":944,"o":"m 697 132 l 529 0 l 0 0 l 249 926 l 415 1058 l 944 1058 l 697 132 m 610 794 l 478 794 l 336 265 l 468 265 l 610 794 z "},"P":{"ha":794,"x_min":0,"x_max":944,"o":"m 767 397 l 601 265 l 336 265 l 265 0 l 0 0 l 283 1058 l 944 1058 l 767 397 m 610 794 l 478 794 l 406 529 l 538 529 l 610 794 z "},"Q":{"ha":794,"x_min":0,"x_max":944,"o":"m 610 794 l 478 794 l 336 265 l 468 265 l 610 794 m 265 0 l 0 0 l 249 926 l 415 1058 l 944 1058 l 697 132 l 529 0 l 493 -132 l 229 -132 l 265 0 z "},"R":{"ha":794,"x_min":0,"x_max":944,"o":"m 610 794 l 478 794 l 406 529 l 538 529 l 610 794 m 468 265 l 336 265 l 265 0 l 0 0 l 283 1058 l 944 1058 l 803 529 l 635 397 l 733 265 l 661 0 l 397 0 l 468 265 z "},"S":{"ha":794,"x_min":0,"x_max":944,"o":"m 697 132 l 529 0 l 0 0 l 71 265 l 468 265 l 503 397 l 106 397 l 249 926 l 415 1058 l 944 1058 l 874 794 l 478 794 l 442 661 l 839 661 l 697 132 z "},"T":{"ha":794,"x_min":196,"x_max":944,"o":"m 944 1058 l 874 794 l 673 794 l 460 0 l 196 0 l 409 794 l 213 794 l 283 1058 l 944 1058 z "},"U":{"ha":794,"x_min":0,"x_max":944,"o":"m 548 1058 l 336 265 l 468 265 l 680 1058 l 944 1058 l 661 0 l 0 0 l 283 1058 l 548 1058 z "},"V":{"ha":794,"x_min":36,"x_max":944,"o":"m 697 132 l 529 0 l 132 0 l 36 132 l 283 1058 l 548 1058 l 336 265 l 468 265 l 680 1058 l 944 1058 l 697 132 z "},"W":{"ha":1190,"x_min":0,"x_max":1341,"o":"m 1094 132 l 926 0 l 0 0 l 283 1058 l 548 1058 l 336 265 l 468 265 l 680 1058 l 944 1058 l 733 265 l 865 265 l 1077 1058 l 1341 1058 l 1094 132 z "},"X":{"ha":794,"x_min":0,"x_max":944,"o":"m 265 0 l 0 0 l 71 265 l 238 397 l 142 529 l 283 1058 l 548 1058 l 406 529 l 538 529 l 680 1058 l 944 1058 l 803 529 l 635 397 l 733 265 l 661 0 l 397 0 l 468 265 l 336 265 l 265 0 z "},"Y":{"ha":794,"x_min":0,"x_max":944,"o":"m 697 132 l 529 0 l 0 0 l 71 265 l 468 265 l 503 397 l 238 397 l 142 529 l 283 1058 l 548 1058 l 442 661 l 574 661 l 680 1058 l 944 1058 l 697 132 z "},"Z":{"ha":794,"x_min":0,"x_max":944,"o":"m 177 661 l 574 661 l 610 794 l 213 794 l 283 1058 l 944 1058 l 767 397 l 370 397 l 336 265 l 733 265 l 661 0 l 0 0 l 177 661 z "},"[":{"ha":529,"x_min":0,"x_max":680,"o":"m 680 1058 l 610 794 l 478 794 l 336 265 l 468 265 l 397 0 l 0 0 l 283 1058 l 680 1058 z "},"\\":{"ha":661,"x_min":265,"x_max":548,"o":"m 529 0 l 265 0 l 283 1058 l 548 1058 l 529 0 z "},"]":{"ha":529,"x_min":0,"x_max":680,"o":"m 680 1058 l 397 0 l 0 0 l 71 265 l 204 265 l 345 794 l 213 794 l 283 1058 l 680 1058 z "},"^":{"ha":661,"x_min":213,"x_max":742,"o":"m 310 661 l 213 794 l 548 1058 l 742 794 l 574 661 l 478 794 l 310 661 z "},"_":{"ha":794,"x_min":0,"x_max":733,"o":"m 733 265 l 661 0 l 0 0 l 71 265 l 733 265 z "},"`":{"ha":661,"x_min":213,"x_max":812,"o":"m 283 1058 l 812 1058 l 742 794 l 213 794 l 283 1058 z "},"a":{"ha":794,"x_min":0,"x_max":910,"o":"m 538 529 l 610 794 l 478 794 l 406 529 l 538 529 m 336 265 l 265 0 l 0 0 l 283 1058 l 812 1058 l 910 926 l 661 0 l 397 0 l 468 265 l 336 265 z "},"b":{"ha":794,"x_min":0,"x_max":944,"o":"m 671 529 l 767 397 l 661 0 l 0 0 l 283 1058 l 944 1058 l 839 661 l 671 529 m 478 794 l 442 661 l 574 661 l 610 794 l 478 794 m 370 397 l 336 265 l 468 265 l 503 397 l 370 397 z "},"c":{"ha":794,"x_min":36,"x_max":944,"o":"m 132 0 l 36 132 l 249 926 l 415 1058 l 944 1058 l 839 661 l 574 661 l 610 794 l 478 794 l 336 265 l 468 265 l 503 397 l 767 397 l 661 0 l 132 0 z "},"d":{"ha":794,"x_min":0,"x_max":910,"o":"m 697 132 l 529 0 l 0 0 l 283 1058 l 812 1058 l 910 926 l 697 132 m 610 794 l 478 794 l 336 265 l 468 265 l 610 794 z "},"e":{"ha":794,"x_min":0,"x_max":944,"o":"m 370 397 l 336 265 l 733 265 l 661 0 l 0 0 l 283 1058 l 944 1058 l 874 794 l 478 794 l 442 661 l 839 661 l 767 397 l 370 397 z "},"f":{"ha":794,"x_min":0,"x_max":944,"o":"m 370 397 l 265 0 l 0 0 l 283 1058 l 944 1058 l 874 794 l 478 794 l 442 661 l 839 661 l 767 397 l 370 397 z "},"g":{"ha":794,"x_min":36,"x_max":944,"o":"m 132 0 l 36 132 l 249 926 l 415 1058 l 944 1058 l 839 661 l 574 661 l 610 794 l 478 794 l 336 265 l 468 265 l 538 529 l 803 529 l 661 0 l 132 0 z "},"h":{"ha":794,"x_min":0,"x_max":944,"o":"m 944 1058 l 661 0 l 397 0 l 468 265 l 336 265 l 265 0 l 0 0 l 283 1058 l 548 1058 l 406 529 l 538 529 l 680 1058 l 944 1058 z "},"i":{"ha":397,"x_min":0,"x_max":548,"o":"m 0 0 l 283 1058 l 548 1058 l 265 0 l 0 0 z "},"j":{"ha":794,"x_min":36,"x_max":944,"o":"m 132 0 l 36 132 l 142 529 l 406 529 l 336 265 l 468 265 l 680 1058 l 944 1058 l 661 0 l 132 0 z "},"k":{"ha":794,"x_min":0,"x_max":944,"o":"m 635 397 l 733 265 l 661 0 l 397 0 l 468 265 l 336 265 l 265 0 l 0 0 l 283 1058 l 548 1058 l 406 529 l 538 529 l 680 1058 l 944 1058 l 803 529 l 635 397 z "},"l":{"ha":661,"x_min":0,"x_max":601,"o":"m 548 1058 l 336 265 l 601 265 l 529 0 l 0 0 l 283 1058 l 548 1058 z "},"m":{"ha":1190,"x_min":0,"x_max":1307,"o":"m 1209 1058 l 1307 926 l 1058 0 l 794 0 l 1007 794 l 874 794 l 661 0 l 397 0 l 610 794 l 478 794 l 265 0 l 0 0 l 283 1058 l 1209 1058 z "},"n":{"ha":794,"x_min":0,"x_max":910,"o":"m 812 1058 l 910 926 l 661 0 l 397 0 l 610 794 l 478 794 l 265 0 l 0 0 l 283 1058 l 812 1058 z "},"o":{"ha":794,"x_min":0,"x_max":944,"o":"m 697 132 l 529 0 l 0 0 l 249 926 l 415 1058 l 944 1058 l 697 132 m 610 794 l 478 794 l 336 265 l 468 265 l 610 794 z "},"p":{"ha":794,"x_min":0,"x_max":944,"o":"m 767 397 l 601 265 l 336 265 l 265 0 l 0 0 l 283 1058 l 944 1058 l 767 397 m 610 794 l 478 794 l 406 529 l 538 529 l 610 794 z "},"q":{"ha":794,"x_min":0,"x_max":944,"o":"m 610 794 l 478 794 l 336 265 l 468 265 l 610 794 m 265 0 l 0 0 l 249 926 l 415 1058 l 944 1058 l 697 132 l 529 0 l 493 -132 l 229 -132 l 265 0 z "},"r":{"ha":794,"x_min":0,"x_max":944,"o":"m 610 794 l 478 794 l 406 529 l 538 529 l 610 794 m 468 265 l 336 265 l 265 0 l 0 0 l 283 1058 l 944 1058 l 803 529 l 635 397 l 733 265 l 661 0 l 397 0 l 468 265 z "},"s":{"ha":794,"x_min":0,"x_max":944,"o":"m 697 132 l 529 0 l 0 0 l 71 265 l 468 265 l 503 397 l 106 397 l 249 926 l 415 1058 l 944 1058 l 874 794 l 478 794 l 442 661 l 839 661 l 697 132 z "},"t":{"ha":794,"x_min":196,"x_max":944,"o":"m 944 1058 l 874 794 l 673 794 l 460 0 l 196 0 l 409 794 l 213 794 l 283 1058 l 944 1058 z "},"u":{"ha":794,"x_min":0,"x_max":944,"o":"m 548 1058 l 336 265 l 468 265 l 680 1058 l 944 1058 l 661 0 l 0 0 l 283 1058 l 548 1058 z "},"v":{"ha":794,"x_min":36,"x_max":944,"o":"m 697 132 l 529 0 l 132 0 l 36 132 l 283 1058 l 548 1058 l 336 265 l 468 265 l 680 1058 l 944 1058 l 697 132 z "},"w":{"ha":1190,"x_min":0,"x_max":1341,"o":"m 1094 132 l 926 0 l 0 0 l 283 1058 l 548 1058 l 336 265 l 468 265 l 680 1058 l 944 1058 l 733 265 l 865 265 l 1077 1058 l 1341 1058 l 1094 132 z "},"x":{"ha":794,"x_min":0,"x_max":944,"o":"m 265 0 l 0 0 l 71 265 l 238 397 l 142 529 l 283 1058 l 548 1058 l 406 529 l 538 529 l 680 1058 l 944 1058 l 803 529 l 635 397 l 733 265 l 661 0 l 397 0 l 468 265 l 336 265 l 265 0 z "},"y":{"ha":794,"x_min":0,"x_max":944,"o":"m 697 132 l 529 0 l 0 0 l 71 265 l 468 265 l 503 397 l 238 397 l 142 529 l 283 1058 l 548 1058 l 442 661 l 574 661 l 680 1058 l 944 1058 l 697 132 z "},"z":{"ha":794,"x_min":0,"x_max":944,"o":"m 177 661 l 574 661 l 610 794 l 213 794 l 283 1058 l 944 1058 l 767 397 l 370 397 l 336 265 l 733 265 l 661 0 l 0 0 l 177 661 z "},"{":{"ha":661,"x_min":106,"x_max":812,"o":"m 310 661 l 415 1058 l 812 1058 l 742 794 l 610 794 l 468 265 l 601 265 l 529 0 l 132 0 l 238 397 l 106 397 l 177 661 l 310 661 z "},"|":{"ha":397,"x_min":0,"x_max":548,"o":"m 548 1058 l 265 0 l 0 0 l 283 1058 l 548 1058 z "},"}":{"ha":661,"x_min":0,"x_max":706,"o":"m 706 661 l 635 397 l 503 397 l 397 0 l 0 0 l 71 265 l 204 265 l 345 794 l 213 794 l 283 1058 l 680 1058 l 574 661 l 706 661 z "},"~":{"ha":661,"x_min":213,"x_max":812,"o":"m 283 1058 l 812 1058 l 742 794 l 213 794 l 283 1058 z "}," ":{"ha":397,"x_min":0,"x_max":0,"o":""}}}
